<svg width="70pt" height="17pt" viewBox="0 0 70 17" xmlns="http://www.w3.org/2000/svg"><g id="fontsvg1641066636579" stroke-linecap="round" fill-rule="evenodd" fill="#ff8000"><path d="M 26.25 16.875 L 18.75 16.875 L 18.75 15 L 16.875 15 L 16.875 11.25 L 20.625 11.25 L 20.625 15 L 24.375 15 L 24.375 11.25 L 22.5 11.25 L 22.5 9.375 L 20.625 9.375 L 20.625 7.5 L 18.75 7.5 L 18.75 5.625 L 16.875 5.625 L 16.875 1.875 L 18.75 1.875 L 18.75 0 L 26.25 0 L 26.25 1.875 L 28.125 1.875 L 28.125 5.625 L 24.375 5.625 L 24.375 1.875 L 20.625 1.875 L 20.625 5.625 L 22.5 5.625 L 22.5 7.5 L 24.375 7.5 L 24.375 9.375 L 26.25 9.375 L 26.25 11.25 L 28.125 11.25 L 28.125 15 L 26.25 15 L 26.25 16.875 Z M 3.75 16.875 L 0 16.875 L 0 0 L 1.875 0 L 1.875 1.875 L 3.75 1.875 L 3.75 3.75 L 5.625 3.75 L 5.625 5.625 L 7.5 5.625 L 7.5 3.75 L 9.375 3.75 L 9.375 1.875 L 11.25 1.875 L 11.25 0 L 13.125 0 L 13.125 16.875 L 9.375 16.875 L 9.375 7.5 L 7.5 7.5 L 7.5 9.375 L 5.625 9.375 L 5.625 7.5 L 3.75 7.5 L 3.75 16.875 Z M 67.5 16.875 L 58.125 16.875 L 58.125 0 L 67.5 0 L 67.5 1.875 L 69.375 1.875 L 69.375 7.5 L 67.5 7.5 L 67.5 9.375 L 69.375 9.375 L 69.375 15 L 67.5 15 L 67.5 16.875 Z M 50.625 16.875 L 46.875 16.875 L 46.875 1.875 L 43.125 1.875 L 43.125 0 L 54.375 0 L 54.375 1.875 L 50.625 1.875 L 50.625 16.875 Z M 61.875 15 L 65.625 15 L 65.625 9.375 L 61.875 9.375 L 61.875 15 Z M 61.875 7.5 L 65.625 7.5 L 65.625 1.875 L 61.875 1.875 L 61.875 7.5 Z" vector-effect="non-scaling-stroke"/></g></svg>